<?xml version="1.0" standalone="no"?>
<!DOCTYPE svg PUBLIC "-//W3C//DTD SVG 20010904//EN"
 "http://www.w3.org/TR/2001/REC-SVG-20010904/DTD/svg10.dtd">
<svg version="1.0" xmlns="http://www.w3.org/2000/svg"
 width="620.000000pt" height="620.000000pt" viewBox="0 0 620.000000 620.000000"
 preserveAspectRatio="xMidYMid meet">
<metadata>
Created by potrace 1.11, written by Peter Selinger 2001-2013
</metadata>
<g transform="translate(0.000000,620.000000) scale(0.100000,-0.100000)"
fill="#000000" stroke="none">
<path d="M314 5969 c-46 -13 -91 -69 -99 -121 -3 -24 -5 -1277 -3 -2785 l3
-2742 21 -27 c11 -15 33 -37 48 -48 l27 -21 2789 0 2789 0 27 21 c15 11 37 33
48 48 l21 27 0 2779 0 2779 -21 27 c-11 15 -33 37 -48 48 l-27 21 -2772 2
c-1654 1 -2785 -2 -2803 -8z m2446 -1359 c82 -24 174 -83 228 -146 24 -28 149
-245 288 -499 135 -247 254 -459 264 -470 16 -15 25 -17 46 -10 22 8 71 91
281 475 234 430 258 470 316 525 169 162 400 194 610 83 111 -60 150 -115 389
-554 120 -219 292 -527 382 -684 90 -157 162 -288 159 -292 -2 -5 -116 -8
-253 -8 l-249 0 -25 43 c-13 23 -153 272 -311 552 -158 281 -297 521 -310 534
-46 47 -63 31 -179 -181 l-105 -193 198 -3 199 -2 96 -170 c53 -94 96 -175 96
-180 0 -6 -143 -10 -394 -10 l-395 0 -53 -96 c-64 -117 -131 -187 -223 -236
-92 -48 -142 -60 -244 -59 -151 0 -290 62 -382 170 -21 25 -151 251 -288 501
-257 470 -277 500 -318 474 -10 -6 -133 -221 -274 -478 -213 -390 -264 -475
-309 -521 -201 -204 -549 -194 -739 21 -28 32 -175 290 -421 739 l-378 690
256 3 c224 2 258 0 269 -13 6 -9 147 -266 313 -571 328 -600 324 -595 375
-543 13 13 132 224 266 469 279 511 300 540 444 611 121 60 236 69 375 29z
m-2170 -2110 c0 -118 11 -160 50 -195 19 -18 36 -20 144 -20 l121 0 3 163 c2
154 4 162 22 162 19 0 20 -7 20 -165 l0 -165 135 0 135 0 2 163 c3 154 4 162
23 162 19 0 20 -8 23 -182 l2 -183 -303 0 c-299 0 -305 0 -337 23 -68 46 -75
64 -78 213 -3 130 -3 134 17 134 20 0 21 -5 21 -110z m1165 94 c61 -28 69 -52
73 -211 l4 -143 -197 0 c-219 0 -241 5 -270 66 -19 40 -19 58 -1 93 31 59 54
65 244 69 163 4 172 5 172 24 0 62 -43 78 -211 78 -122 0 -129 1 -129 20 0 19
7 20 141 20 108 0 149 -4 174 -16z m535 -6 c70 -36 84 -69 88 -220 l4 -128
-26 0 -26 0 0 129 0 129 -30 31 c-38 38 -65 43 -215 39 l-120 -3 -3 -162 c-2
-155 -4 -163 -22 -163 -19 0 -20 7 -20 185 l0 185 163 0 c149 0 167 -2 207
-22z m630 2 c0 -19 -7 -20 -157 -20 -130 0 -164 -3 -193 -18 -51 -25 -72 -73
-66 -146 4 -49 10 -64 35 -90 l31 -31 155 -3 155 -3 0 60 0 61 -115 0 c-108 0
-115 1 -115 20 0 19 7 20 135 20 l135 0 0 -100 0 -100 -174 0 c-163 0 -175 1
-206 23 -48 32 -72 69 -77 120 -8 70 5 133 35 168 43 52 70 58 255 59 160 0
167 -1 167 -20z m560 0 c0 -19 -7 -20 -157 -20 -130 0 -164 -3 -193 -18 -51
-25 -72 -73 -66 -146 4 -49 10 -64 35 -90 l31 -31 155 -3 155 -3 0 60 0 61
-115 0 c-108 0 -115 1 -115 20 0 19 7 20 135 20 l135 0 0 -100 0 -100 -174 0
c-163 0 -175 1 -206 23 -48 32 -72 69 -77 120 -8 70 5 133 35 168 43 52 70 58
255 59 160 0 167 -1 167 -20z m152 -104 c3 -108 6 -128 24 -153 35 -47 58 -53
207 -53 l137 0 0 166 0 165 23 -3 c22 -3 22 -5 25 -185 l2 -183 -173 0 c-164
0 -176 1 -207 23 -68 46 -75 64 -78 213 -3 128 -3 134 16 134 19 0 21 -8 24
-124z m903 108 c61 -28 69 -52 73 -211 l4 -143 -197 0 c-219 0 -241 5 -270 66
-19 40 -19 58 -1 93 31 59 54 65 244 69 163 4 172 5 172 24 0 62 -43 78 -211
78 -122 0 -129 1 -129 20 0 19 7 20 141 20 108 0 149 -4 174 -16z m605 -4 c0
-19 -7 -20 -142 -20 -223 0 -248 -22 -248 -217 0 -106 -1 -113 -20 -113 -19 0
-20 7 -20 113 0 125 9 169 42 205 41 44 72 51 236 52 145 0 152 -1 152 -20z
m435 0 c64 -31 88 -82 83 -180 -4 -89 -20 -120 -78 -151 -30 -17 -59 -19 -217
-19 l-183 0 0 185 0 185 177 0 c156 0 181 -2 218 -20z"/>
<path d="M1427 2409 c-43 -25 -37 -97 9 -118 15 -7 87 -11 184 -11 l160 0 0
70 0 70 -167 0 c-99 0 -175 -5 -186 -11z"/>
<path d="M4207 2409 c-43 -25 -37 -97 9 -118 15 -7 87 -11 184 -11 l160 0 0
70 0 70 -167 0 c-99 0 -175 -5 -186 -11z"/>
<path d="M5228 2564 c-5 -4 -8 -70 -8 -146 l0 -138 155 0 c173 0 203 8 230 60
20 39 19 134 -1 169 -30 51 -47 56 -214 59 -85 2 -158 0 -162 -4z"/>
</g>
</svg>
